<svg width="40" height="40" viewBox="0 0 40 40" xmlns="http://www.w3.org/2000/svg">
  <!-- 背景圆形 -->
  <circle cx="20" cy="20" r="18" fill="#3b82f6" stroke="#ffffff" stroke-width="2"/>
  
  <!-- 智能大脑图案 -->
  <path d="M12 16 C12 12, 16 10, 20 10 C24 10, 28 12, 28 16 C28 18, 26 20, 24 20 L22 22 L18 22 L16 20 C14 20, 12 18, 12 16 Z" 
        fill="#ffffff" opacity="0.9"/>
  
  <!-- 电路图案 -->
  <circle cx="16" cy="16" r="1.5" fill="#3b82f6"/>
  <circle cx="24" cy="16" r="1.5" fill="#3b82f6"/>
  <circle cx="20" cy="20" r="1.5" fill="#3b82f6"/>
  
  <!-- 连接线 -->
  <line x1="16" y1="16" x2="20" y2="20" stroke="#3b82f6" stroke-width="1.5"/>
  <line x1="24" y1="16" x2="20" y2="20" stroke="#3b82f6" stroke-width="1.5"/>
  
  <!-- 工具图标（扳手） -->
  <path d="M15 28 L17 26 L19 28 L17 30 Z M21 26 L23 24 L25 26 L23 28 Z" 
        fill="#ffffff" opacity="0.8"/>
</svg> 